# xmcd
#
# Track frame offsets:
#	150
#	28449
#	41766
#	61100
#	77245
#	99678
#	124338
#	140223
#	159506
#	180026
#
# Disc length: 2518 seconds
#
# Revision: 2
# Processed by: cddbd v1.5.2PL0 Copyright (c) Steve Scherf et al.
# Submitted via: audiograbber 1.83.01
#
DISCID=8909d40a
DTITLE=goubran - Irrlicht
DYEAR=2016
DGENRE=Deutsch
TTITLE0=Captain Thomas
TTITLE1=So bin ich erzogen
TTITLE2=Wo hast Du gespielt, kleiner Bruder
TTITLE3=Der Tod der schönsten Stunde
TTITLE4=Die Wanderratten
TTITLE5=GPS Blues
TTITLE6=So viele Bilder
TTITLE7=Irrlicht
TTITLE8=Spuren
TTITLE9=Letztes Lied
EXTD=
EXTT0=
EXTT1=
EXTT2=
EXTT3=
EXTT4=
EXTT5=
EXTT6=
EXTT7=
EXTT8=
EXTT9=
PLAYORDER=
